<svg width="200" height="64" viewBox="0 0 200 64" fill="none" xmlns="http://www.w3.org/2000/svg">
<path d="M197.432 19.7085C197.193 19.9496 196.874 20.1104 196.476 20.1104C196.078 20.1104 195.759 19.9496 195.52 19.7085C195.281 19.4674 195.122 19.146 195.122 18.7441C195.122 18.3423 195.281 18.0209 195.52 17.7798C195.759 17.5387 196.078 17.3779 196.476 17.3779C196.874 17.3779 197.193 17.5387 197.432 17.7798C197.671 18.0209 197.83 18.3423 197.83 18.7441C197.83 19.146 197.671 19.4674 197.432 19.7085ZM195.6 17.9405C195.361 18.1816 195.281 18.4227 195.281 18.7441C195.281 19.0656 195.361 19.3871 195.6 19.5478C195.839 19.7889 196.078 19.8693 196.397 19.8693C196.715 19.8693 197.034 19.7889 197.193 19.5478C197.432 19.3067 197.512 19.0656 197.512 18.7441C197.512 18.4227 197.432 18.1012 197.193 17.9405C196.954 17.6994 196.715 17.619 196.397 17.619C196.158 17.5387 195.839 17.6994 195.6 17.9405ZM196.397 18.0209C196.556 18.0209 196.715 18.0209 196.795 18.1012C196.954 18.1816 197.034 18.2619 197.034 18.503C197.034 18.6638 196.954 18.7441 196.874 18.8245C196.795 18.8245 196.715 18.9049 196.636 18.9049C196.795 18.9049 196.874 18.9852 196.874 19.0656C196.954 19.146 196.954 19.2263 196.954 19.3067V19.3871V19.4674V19.5478H196.715V19.4674V19.3067C196.715 19.146 196.636 18.9852 196.556 18.9852C196.476 18.9852 196.397 18.9049 196.237 18.9049H195.998V19.4674H195.759V17.9405H196.397V18.0209ZM196.715 18.2619C196.636 18.2619 196.556 18.1816 196.397 18.1816H196.158V18.7441H196.397C196.476 18.7441 196.556 18.7441 196.636 18.7441C196.715 18.6638 196.795 18.6638 196.795 18.503C196.795 18.3423 196.795 18.2619 196.715 18.2619Z" fill="white"/>
<path d="M71.0989 0.662089C60.9827 2.26939 53.8138 7.89497 53.8138 10.6274C53.8138 13.9224 58.9117 16.6548 62.3369 20.3516C64.1689 22.2804 64.6469 23.968 64.6469 25.6557C64.6469 26.5397 64.5672 27.5041 64.2486 27.9059C63.691 28.7096 61.4607 29.8347 59.7879 29.5132C56.3627 28.8703 55.7255 23.968 56.5221 21.5571C56.6814 21.1552 56.522 20.432 55.9645 20.1105C55.4069 19.789 54.5307 19.789 54.1324 20.8338C53.1765 23.2447 52.6189 29.031 56.0441 31.442C57.1593 32.2457 58.5134 32.4867 60.5048 32.4867C66.3993 32.4867 69.9041 27.9863 71.5769 23.7269C73.3293 19.0657 74.1258 14.726 69.3465 10.6274C68.0721 9.58264 67.1958 7.49314 67.5145 6.44839C67.9127 5.16255 68.9483 4.84108 68.9483 5.7251C68.9483 7.17168 72.3734 8.21643 73.3293 3.55524C73.4886 3.23378 72.6124 0.501358 71.0989 0.662089Z" fill="white"/>
<path d="M93.96 21.5569C93.5617 22.0391 93.8007 21.7176 93.4024 22.1998C93.0838 22.6016 91.5703 24.1286 90.1365 24.2893C88.0655 24.5304 87.8265 21.798 87.8265 20.7532C87.8265 19.387 88.862 16.8957 90.4552 16.8153C90.9331 16.8153 91.0127 16.9761 91.1721 17.1368C91.3314 17.3779 91.4907 17.4582 91.3314 17.7797C90.3755 19.7085 90.6941 20.7532 91.411 20.7532C91.65 20.7532 91.7296 20.5925 91.9686 20.4318C92.2076 20.271 93.8803 18.9852 93.8803 17.8601C93.8803 16.735 93.0838 14.0829 91.7296 13.6811C91.1721 13.5203 89.7383 14.0025 88.4638 14.7258C86.552 15.9313 85.2776 18.8245 85.2776 18.8245C84.4014 19.9496 84.0031 20.271 83.4455 20.914C82.8879 21.5569 81.7727 22.9231 80.5779 22.9231C79.6221 23.0034 79.3034 21.8783 78.9848 21.155C78.9052 20.8336 78.6662 20.1907 78.7458 20.1907C78.9052 20.1907 79.1441 20.1103 79.3831 20.0299C79.9407 19.8692 83.6048 17.619 83.6048 14.8062C83.6048 13.7614 82.649 13.0382 82.0117 13.0382C81.3745 13.0382 79.861 13.3596 78.9052 14.0025C77.2324 15.1276 75.9579 16.4135 75.4003 17.2975C73.8869 19.5477 73.0903 23.6464 75.0021 25.8162C75.8783 26.861 76.9934 27.6646 78.1883 27.9057C80.9762 28.3879 82.649 24.6108 84.0031 23.4053C84.2421 25.8966 84.5607 26.7806 85.5962 27.5039C86.6317 28.2272 87.9062 28.3879 89.579 27.3432C91.3314 26.2984 93.4024 24.45 94.1193 23.566C94.1193 25.7359 95.7124 27.4235 97.7834 27.6646C101.687 28.1468 104.076 22.4409 104.634 19.7085C105.032 17.4582 104.474 16.5742 104.713 16.4939C105.032 16.3331 106.466 15.9313 106.784 16.092C107.103 16.2528 107.581 18.7441 107.422 20.1103C107.103 22.4409 106.227 26.5395 107.82 26.7003C109.333 26.861 111.723 22.682 112.759 22.6016C114.033 22.6016 114.591 25.977 116.104 25.977C117.618 25.977 119.29 24.2089 120.246 24.2089C120.087 26.5395 121.282 28.0665 123.193 28.0665C126.539 28.0665 131.159 21.798 132.593 20.1103C132.035 22.9231 131.956 26.861 131.956 27.745C131.876 28.629 132.433 29.7541 132.911 29.7541C134.425 29.7541 136.814 28.1468 137.531 26.2984C137.452 25.1733 138.089 22.682 139.124 20.3514C140.558 17.2975 141.514 13.9222 141.514 12.7167C141.514 11.1897 140.24 5.88564 138.647 5.64454C137.611 5.48381 135.381 7.17148 135.142 7.57331C134.664 8.2966 134.664 9.10025 134.425 10.4665C134.106 12.3149 133.708 14.1633 132.991 15.9313C132.433 17.2975 131.876 18.503 131.159 19.4674C129.486 21.798 127.574 22.9231 127.256 22.682C126.858 22.4409 126.937 20.9943 127.415 19.7888C127.734 19.0655 128.132 18.5834 128.769 18.4226C129.407 18.2619 130.123 18.2619 130.283 18.3423C130.84 18.4226 131.079 17.5386 131 16.976C130.92 16.4939 129.646 16.4135 128.371 16.4939C124.388 16.735 123.512 18.503 122.397 20.1907C120.644 22.9231 118.414 22.3605 117.538 20.6729C116.662 19.0655 116.024 17.2975 114.75 17.8601C114.192 18.1012 112.998 18.9048 112.52 19.3066C112.121 19.7085 111.484 20.1907 111.404 20.0299C111.245 19.7888 111.643 18.5834 111.643 18.0208C111.962 15.2884 112.121 12.8774 111.006 12.2345C110.449 11.913 108.378 12.2345 107.103 12.9578C106.546 13.2792 103.12 14.5651 101.687 14.5651C101.129 14.5651 101.049 13.9222 100.492 13.9222C96.7479 14.0829 94.0396 19.2263 93.96 21.5569ZM78.1883 18.5834C78.029 18.1815 77.8696 17.619 77.9493 16.976C77.9493 16.5742 78.3476 16.1724 78.5865 16.0117C78.9848 15.7706 79.3831 15.4491 79.6221 15.4491C79.861 15.4491 80.1796 15.7706 80.2593 15.9313C80.3389 16.1724 80.2593 17.0564 80.0203 17.3779C79.7017 17.9404 79.0645 18.6637 78.1883 18.5834ZM102.961 19.2263C102.961 19.9496 101.925 22.2802 101.209 22.9231C100.731 23.3249 100.093 23.2445 99.6155 22.7624C99.1376 22.2802 98.58 21.3961 98.8986 19.4674C99.0579 18.5834 99.6952 17.2975 100.571 17.1368C100.731 17.1368 101.846 17.1368 102.324 17.0564C102.881 16.9761 102.961 17.3779 102.961 19.2263Z" fill="white"/>
<path d="M158.56 5.80504C155.772 5.80504 145.975 11.8324 145.337 18.6635C144.859 23.7265 147.886 29.111 150.356 29.995C150.913 30.1557 152.188 30.2361 153.383 29.9146C157.764 28.5484 162.623 22.7621 165.729 18.6635C165.809 18.5831 165.968 18.5831 165.968 18.9046C165.41 21.637 165.171 23.7265 165.331 24.932C165.49 26.6197 166.765 27.1822 167.243 27.2626C168.597 27.5037 171.066 23.405 172.022 21.5566C172.101 21.4763 172.181 21.4763 172.181 21.637C172.022 25.2534 172.659 26.7 173.296 27.3429C173.695 27.7448 174.73 28.0662 174.889 28.0662C176.801 27.9055 178.952 24.5302 180.386 22.0388C180.465 21.8781 180.704 22.1192 180.704 22.3603C180.704 26.2178 181.262 27.1018 181.979 27.4233C182.138 27.5037 182.935 27.8251 183.333 27.7448C184.687 27.4233 186.519 25.9767 187.953 23.7265C187.634 28.1466 184.289 37.7904 183.492 41.4872C183.253 42.8534 183.253 43.8982 183.413 44.1393C184.209 44.9429 187.156 45.184 189.307 44.3C191.537 43.416 192.254 41.9694 192.334 41.5676C192.653 39.9603 190.581 31.4416 193.608 20.753C193.608 20.5923 193.688 20.5119 193.847 20.1101C194.086 19.5475 194.007 18.7439 193.29 17.6991C192.891 17.1365 192.175 16.8955 191.219 17.0562C190.183 17.2169 190.024 17.5384 189.546 18.5831C189.068 19.5475 187.236 22.3603 185.961 22.3603C185.085 22.3603 185.006 21.7174 184.926 20.753C184.846 19.6279 184.607 17.3776 184.607 16.9758C184.607 16.574 184.448 15.9311 183.492 16.0114C182.058 16.0918 180.545 19.226 178.474 21.2352C177.598 22.1192 177.12 21.8781 176.801 21.7174C176.562 21.5566 176.483 19.5475 176.721 17.6991C176.881 16.574 178.076 11.2699 178.235 9.98404C180.704 10.3055 184.129 10.627 187.555 10.7073C190.741 10.7877 193.688 10.627 195.679 10.7073C196.874 9.90367 199.184 6.68906 199.423 5.56395C199.583 4.76029 199.423 4.2781 198.467 4.19774C194.963 3.95664 191.617 4.59956 187.873 5.64431C185.165 6.44796 184.448 6.52833 183.413 6.76943C182.377 7.01052 179.27 7.41235 178.474 7.57308C178.474 7.09089 178.633 6.6087 178.394 6.44796C177.916 6.20687 177.04 6.1265 176.164 6.68906C175.925 6.93016 175.686 7.49271 175.606 7.81417C173.695 8.13564 171.464 7.89454 170.349 7.57308C169.951 7.41235 169.791 7.17125 169.712 6.93016C169.712 6.68906 169.553 5.40322 169.234 5.08175C168.995 4.84066 168.995 3.39408 168.676 3.23335C168.358 3.07262 166.924 2.26897 165.171 5.32285C164.136 7.17125 164.295 7.81417 164.933 8.53746C165.171 8.77856 165.649 9.10002 166.127 9.10002C167.481 9.10002 168.358 8.77856 168.995 8.4571C169.632 8.13564 169.791 8.37673 170.429 8.61783C171.066 8.85892 173.695 9.58221 175.049 9.66258C174.332 11.6717 172.739 15.69 172.34 17.2973C171.464 18.985 170.11 21.1548 169.314 21.1548C168.836 21.1548 168.517 20.5923 168.437 20.2708C168.278 19.6279 168.676 17.3776 168.915 15.7703C169.154 14.163 169.712 12.6361 168.278 12.6361C166.924 12.6361 166.844 12.7165 166.366 13.3594C163.578 16.9758 159.038 21.637 155.932 22.2799C154.099 22.6818 152.427 19.3064 152.427 17.6187C152.427 15.3685 153.144 12.7165 155.533 11.0288C155.772 10.8681 155.772 10.8681 155.932 10.8681C156.091 10.8681 156.489 10.7877 156.489 11.0288C156.569 11.2699 156.967 12.5557 157.684 12.5557C158.56 12.5557 160.074 10.3859 160.074 7.41235C160.153 5.96577 158.799 5.80504 158.56 5.80504Z" fill="white"/>
<path d="M51.3448 21.798C51.2652 20.914 50.0703 21.3962 49.4331 21.7177C48.8755 22.0391 48.1586 22.682 48.1586 23.2446C48.1586 23.8071 48.2383 24.4501 48.2383 24.9323C48.1586 25.4145 48.0789 25.8163 47.2824 25.977C46.7248 26.1377 45.6096 25.7359 45.0521 25.093C43.8572 23.6464 43.7776 23.4053 43.459 22.7624C44.4945 22.0391 46.2469 20.8336 46.4062 18.9049C46.6452 16.6546 43.5386 16.8957 41.6269 17.9405C37.8034 20.03 37.3255 21.9587 37.7238 23.4857C36.4493 24.7715 34.8562 24.8519 33.4224 24.1286C30.3158 22.6017 30.7141 20.4318 28.8821 20.03C26.9703 19.6282 25.6162 21.2355 24.8196 21.2355C25.6958 16.8957 27.7669 11.0291 31.67 3.79619C31.67 3.71582 31.8293 3.314 31.3514 3.23363C30.8734 3.0729 29.36 2.99254 28.5634 3.55509C27.6872 4.11765 27.2093 5.24277 26.811 5.96605C25.0586 6.68934 24.2621 7.0108 21.8724 7.09117C20.6776 7.17153 19.2438 7.2519 18.8455 7.2519C18.8455 6.44824 18.6862 4.43911 18.6065 4.03729C18.5269 3.63546 18.1286 3.15327 17.3321 3.23363C15.7389 3.47473 12.6324 4.43911 12.3138 6.60897C10.5614 6.52861 7.45481 5.56423 5.38378 5.72496C1.16205 6.04642 0.604465 6.20715 0.445155 7.41263C0.3655 8.13591 0.52481 8.69847 0.52481 8.93957C0.52481 9.18066 0.604466 10.145 1.48067 9.98432C5.22447 9.26103 10.5614 9.3414 11.7562 9.26103C11.3579 13.1989 10.2427 22.1998 9.36653 25.8163C8.64964 28.6291 8.17171 30.4775 10.3224 29.5935C12.6324 28.6291 13.5086 27.9861 14.3052 27.504C15.1017 27.0218 16.6152 25.4948 16.9338 23.2446C17.3321 20.3514 18.0489 16.9761 18.1286 15.7706C18.2083 14.5651 18.6862 10.7076 18.8455 9.34139C21.3945 9.34139 24.74 8.29665 25.7755 7.89482C21.4741 16.0117 18.8455 24.9323 19.0048 26.6199C19.0845 27.4236 19.5624 27.8254 20.5979 27.6647C21.6334 27.504 23.1469 26.4592 24.0231 25.4948C24.8993 24.5304 25.7755 24.209 26.8907 24.3697C28.0058 24.5304 28.4838 24.9323 28.8821 25.6555C29.6786 27.2629 30.8734 27.8254 33.0241 27.4236C35.8121 26.9414 36.8476 25.8966 38.2017 24.9323C39.4762 27.5843 41.0693 28.7094 44.6538 28.7094C46.6452 28.7094 49.4331 27.1825 50.5483 25.7359C51.1059 24.8519 51.4245 22.682 51.3448 21.798ZM42.8217 21.2355C42.5827 20.914 42.4234 19.8692 42.3438 19.146C42.5031 18.7441 43.459 18.1816 44.0165 18.6638C44.5741 19.0656 44.8927 19.8692 43.9369 20.8336C43.6183 21.2355 43.2996 21.3962 42.8217 21.2355Z" fill="white"/>
<path d="M177.598 40.8447H0.365234V42.452H177.598V40.8447Z" fill="white"/>
<path d="M197.432 19.7085C197.193 19.9496 196.874 20.1104 196.476 20.1104C196.078 20.1104 195.759 19.9496 195.52 19.7085C195.281 19.4674 195.122 19.146 195.122 18.7441C195.122 18.3423 195.281 18.0209 195.52 17.7798C195.759 17.5387 196.078 17.3779 196.476 17.3779C196.874 17.3779 197.193 17.5387 197.432 17.7798C197.671 18.0209 197.83 18.3423 197.83 18.7441C197.83 19.146 197.671 19.4674 197.432 19.7085ZM195.6 17.9405C195.361 18.1816 195.281 18.4227 195.281 18.7441C195.281 19.0656 195.361 19.3871 195.6 19.5478C195.839 19.7889 196.078 19.8693 196.397 19.8693C196.715 19.8693 197.034 19.7889 197.193 19.5478C197.432 19.3067 197.512 19.0656 197.512 18.7441C197.512 18.4227 197.432 18.1012 197.193 17.9405C196.954 17.6994 196.715 17.619 196.397 17.619C196.158 17.5387 195.839 17.6994 195.6 17.9405ZM196.397 18.0209C196.556 18.0209 196.715 18.0209 196.795 18.1012C196.954 18.1816 197.034 18.2619 197.034 18.503C197.034 18.6638 196.954 18.7441 196.874 18.8245C196.795 18.8245 196.715 18.9049 196.636 18.9049C196.795 18.9049 196.874 18.9852 196.874 19.0656C196.954 19.146 196.954 19.2263 196.954 19.3067V19.3871V19.4674V19.5478H196.715V19.4674V19.3067C196.715 19.146 196.636 18.9852 196.556 18.9852C196.476 18.9852 196.397 18.9049 196.237 18.9049H195.998V19.4674H195.759V17.9405H196.397V18.0209ZM196.715 18.2619C196.636 18.2619 196.556 18.1816 196.397 18.1816H196.158V18.7441H196.397C196.476 18.7441 196.556 18.7441 196.636 18.7441C196.715 18.6638 196.795 18.6638 196.795 18.503C196.795 18.3423 196.795 18.2619 196.715 18.2619Z" fill="white"/>
<path d="M71.0989 0.662089C60.9827 2.26939 53.8138 7.89497 53.8138 10.6274C53.8138 13.9224 58.9117 16.6548 62.3369 20.3516C64.1689 22.2804 64.6469 23.968 64.6469 25.6557C64.6469 26.5397 64.5672 27.5041 64.2486 27.9059C63.691 28.7096 61.4607 29.8347 59.7879 29.5132C56.3627 28.8703 55.7255 23.968 56.5221 21.5571C56.6814 21.1552 56.522 20.432 55.9645 20.1105C55.4069 19.789 54.5307 19.789 54.1324 20.8338C53.1765 23.2447 52.6189 29.031 56.0441 31.442C57.1593 32.2457 58.5134 32.4867 60.5048 32.4867C66.3993 32.4867 69.9041 27.9863 71.5769 23.7269C73.3293 19.0657 74.1258 14.726 69.3465 10.6274C68.0721 9.58264 67.1958 7.49314 67.5145 6.44839C67.9127 5.16255 68.9483 4.84108 68.9483 5.7251C68.9483 7.17168 72.3734 8.21643 73.3293 3.55524C73.4886 3.23378 72.6124 0.501358 71.0989 0.662089Z" fill="white"/>
<path d="M93.96 21.5569C93.5617 22.0391 93.8007 21.7176 93.4024 22.1998C93.0838 22.6016 91.5703 24.1286 90.1365 24.2893C88.0655 24.5304 87.8265 21.798 87.8265 20.7532C87.8265 19.387 88.862 16.8957 90.4552 16.8153C90.9331 16.8153 91.0127 16.9761 91.1721 17.1368C91.3314 17.3779 91.4907 17.4582 91.3314 17.7797C90.3755 19.7085 90.6941 20.7532 91.411 20.7532C91.65 20.7532 91.7296 20.5925 91.9686 20.4318C92.2076 20.271 93.8803 18.9852 93.8803 17.8601C93.8803 16.735 93.0838 14.0829 91.7296 13.6811C91.1721 13.5203 89.7383 14.0025 88.4638 14.7258C86.552 15.9313 85.2776 18.8245 85.2776 18.8245C84.4014 19.9496 84.0031 20.271 83.4455 20.914C82.8879 21.5569 81.7727 22.9231 80.5779 22.9231C79.6221 23.0034 79.3034 21.8783 78.9848 21.155C78.9052 20.8336 78.6662 20.1907 78.7458 20.1907C78.9052 20.1907 79.1441 20.1103 79.3831 20.0299C79.9407 19.8692 83.6048 17.619 83.6048 14.8062C83.6048 13.7614 82.649 13.0382 82.0117 13.0382C81.3745 13.0382 79.861 13.3596 78.9052 14.0025C77.2324 15.1276 75.9579 16.4135 75.4003 17.2975C73.8869 19.5477 73.0903 23.6464 75.0021 25.8162C75.8783 26.861 76.9934 27.6646 78.1883 27.9057C80.9762 28.3879 82.649 24.6108 84.0031 23.4053C84.2421 25.8966 84.5607 26.7806 85.5962 27.5039C86.6317 28.2272 87.9062 28.3879 89.579 27.3432C91.3314 26.2984 93.4024 24.45 94.1193 23.566C94.1193 25.7359 95.7124 27.4235 97.7834 27.6646C101.687 28.1468 104.076 22.4409 104.634 19.7085C105.032 17.4582 104.474 16.5742 104.713 16.4939C105.032 16.3331 106.466 15.9313 106.784 16.092C107.103 16.2528 107.581 18.7441 107.422 20.1103C107.103 22.4409 106.227 26.5395 107.82 26.7003C109.333 26.861 111.723 22.682 112.759 22.6016C114.033 22.6016 114.591 25.977 116.104 25.977C117.618 25.977 119.29 24.2089 120.246 24.2089C120.087 26.5395 121.282 28.0665 123.193 28.0665C126.539 28.0665 131.159 21.798 132.593 20.1103C132.035 22.9231 131.956 26.861 131.956 27.745C131.876 28.629 132.433 29.7541 132.911 29.7541C134.425 29.7541 136.814 28.1468 137.531 26.2984C137.452 25.1733 138.089 22.682 139.124 20.3514C140.558 17.2975 141.514 13.9222 141.514 12.7167C141.514 11.1897 140.24 5.88564 138.647 5.64454C137.611 5.48381 135.381 7.17148 135.142 7.57331C134.664 8.2966 134.664 9.10025 134.425 10.4665C134.106 12.3149 133.708 14.1633 132.991 15.9313C132.433 17.2975 131.876 18.503 131.159 19.4674C129.486 21.798 127.574 22.9231 127.256 22.682C126.858 22.4409 126.937 20.9943 127.415 19.7888C127.734 19.0655 128.132 18.5834 128.769 18.4226C129.407 18.2619 130.123 18.2619 130.283 18.3423C130.84 18.4226 131.079 17.5386 131 16.976C130.92 16.4939 129.646 16.4135 128.371 16.4939C124.388 16.735 123.512 18.503 122.397 20.1907C120.644 22.9231 118.414 22.3605 117.538 20.6729C116.662 19.0655 116.024 17.2975 114.75 17.8601C114.192 18.1012 112.998 18.9048 112.52 19.3066C112.121 19.7085 111.484 20.1907 111.404 20.0299C111.245 19.7888 111.643 18.5834 111.643 18.0208C111.962 15.2884 112.121 12.8774 111.006 12.2345C110.449 11.913 108.378 12.2345 107.103 12.9578C106.546 13.2792 103.12 14.5651 101.687 14.5651C101.129 14.5651 101.049 13.9222 100.492 13.9222C96.7479 14.0829 94.0396 19.2263 93.96 21.5569ZM78.1883 18.5834C78.029 18.1815 77.8696 17.619 77.9493 16.976C77.9493 16.5742 78.3476 16.1724 78.5865 16.0117C78.9848 15.7706 79.3831 15.4491 79.6221 15.4491C79.861 15.4491 80.1796 15.7706 80.2593 15.9313C80.3389 16.1724 80.2593 17.0564 80.0203 17.3779C79.7017 17.9404 79.0645 18.6637 78.1883 18.5834ZM102.961 19.2263C102.961 19.9496 101.925 22.2802 101.209 22.9231C100.731 23.3249 100.093 23.2445 99.6155 22.7624C99.1376 22.2802 98.58 21.3961 98.8986 19.4674C99.0579 18.5834 99.6952 17.2975 100.571 17.1368C100.731 17.1368 101.846 17.1368 102.324 17.0564C102.881 16.9761 102.961 17.3779 102.961 19.2263Z" fill="white"/>
<path d="M158.56 5.80504C155.772 5.80504 145.975 11.8324 145.337 18.6635C144.859 23.7265 147.886 29.111 150.356 29.995C150.913 30.1557 152.188 30.2361 153.383 29.9146C157.764 28.5484 162.623 22.7621 165.729 18.6635C165.809 18.5831 165.968 18.5831 165.968 18.9046C165.41 21.637 165.171 23.7265 165.331 24.932C165.49 26.6197 166.765 27.1822 167.243 27.2626C168.597 27.5037 171.066 23.405 172.022 21.5566C172.101 21.4763 172.181 21.4763 172.181 21.637C172.022 25.2534 172.659 26.7 173.296 27.3429C173.695 27.7448 174.73 28.0662 174.889 28.0662C176.801 27.9055 178.952 24.5302 180.386 22.0388C180.465 21.8781 180.704 22.1192 180.704 22.3603C180.704 26.2178 181.262 27.1018 181.979 27.4233C182.138 27.5037 182.935 27.8251 183.333 27.7448C184.687 27.4233 186.519 25.9767 187.953 23.7265C187.634 28.1466 184.289 37.7904 183.492 41.4872C183.253 42.8534 183.253 43.8982 183.413 44.1393C184.209 44.9429 187.156 45.184 189.307 44.3C191.537 43.416 192.254 41.9694 192.334 41.5676C192.653 39.9603 190.581 31.4416 193.608 20.753C193.608 20.5923 193.688 20.5119 193.847 20.1101C194.086 19.5475 194.007 18.7439 193.29 17.6991C192.891 17.1365 192.175 16.8955 191.219 17.0562C190.183 17.2169 190.024 17.5384 189.546 18.5831C189.068 19.5475 187.236 22.3603 185.961 22.3603C185.085 22.3603 185.006 21.7174 184.926 20.753C184.846 19.6279 184.607 17.3776 184.607 16.9758C184.607 16.574 184.448 15.9311 183.492 16.0114C182.058 16.0918 180.545 19.226 178.474 21.2352C177.598 22.1192 177.12 21.8781 176.801 21.7174C176.562 21.5566 176.483 19.5475 176.721 17.6991C176.881 16.574 178.076 11.2699 178.235 9.98404C180.704 10.3055 184.129 10.627 187.555 10.7073C190.741 10.7877 193.688 10.627 195.679 10.7073C196.874 9.90367 199.184 6.68906 199.423 5.56395C199.583 4.76029 199.423 4.2781 198.467 4.19774C194.963 3.95664 191.617 4.59956 187.873 5.64431C185.165 6.44796 184.448 6.52833 183.413 6.76943C182.377 7.01052 179.27 7.41235 178.474 7.57308C178.474 7.09089 178.633 6.6087 178.394 6.44796C177.916 6.20687 177.04 6.1265 176.164 6.68906C175.925 6.93016 175.686 7.49271 175.606 7.81417C173.695 8.13564 171.464 7.89454 170.349 7.57308C169.951 7.41235 169.791 7.17125 169.712 6.93016C169.712 6.68906 169.553 5.40322 169.234 5.08175C168.995 4.84066 168.995 3.39408 168.676 3.23335C168.358 3.07262 166.924 2.26897 165.171 5.32285C164.136 7.17125 164.295 7.81417 164.933 8.53746C165.171 8.77856 165.649 9.10002 166.127 9.10002C167.481 9.10002 168.358 8.77856 168.995 8.4571C169.632 8.13564 169.791 8.37673 170.429 8.61783C171.066 8.85892 173.695 9.58221 175.049 9.66258C174.332 11.6717 172.739 15.69 172.34 17.2973C171.464 18.985 170.11 21.1548 169.314 21.1548C168.836 21.1548 168.517 20.5923 168.437 20.2708C168.278 19.6279 168.676 17.3776 168.915 15.7703C169.154 14.163 169.712 12.6361 168.278 12.6361C166.924 12.6361 166.844 12.7165 166.366 13.3594C163.578 16.9758 159.038 21.637 155.932 22.2799C154.099 22.6818 152.427 19.3064 152.427 17.6187C152.427 15.3685 153.144 12.7165 155.533 11.0288C155.772 10.8681 155.772 10.8681 155.932 10.8681C156.091 10.8681 156.489 10.7877 156.489 11.0288C156.569 11.2699 156.967 12.5557 157.684 12.5557C158.56 12.5557 160.074 10.3859 160.074 7.41235C160.153 5.96577 158.799 5.80504 158.56 5.80504Z" fill="white"/>
<path d="M51.3448 21.798C51.2652 20.914 50.0703 21.3962 49.4331 21.7177C48.8755 22.0391 48.1586 22.682 48.1586 23.2446C48.1586 23.8071 48.2383 24.4501 48.2383 24.9323C48.1586 25.4145 48.0789 25.8163 47.2824 25.977C46.7248 26.1377 45.6096 25.7359 45.0521 25.093C43.8572 23.6464 43.7776 23.4053 43.459 22.7624C44.4945 22.0391 46.2469 20.8336 46.4062 18.9049C46.6452 16.6546 43.5386 16.8957 41.6269 17.9405C37.8034 20.03 37.3255 21.9587 37.7238 23.4857C36.4493 24.7715 34.8562 24.8519 33.4224 24.1286C30.3158 22.6017 30.7141 20.4318 28.8821 20.03C26.9703 19.6282 25.6162 21.2355 24.8196 21.2355C25.6958 16.8957 27.7669 11.0291 31.67 3.79619C31.67 3.71582 31.8293 3.314 31.3514 3.23363C30.8734 3.0729 29.36 2.99254 28.5634 3.55509C27.6872 4.11765 27.2093 5.24277 26.811 5.96605C25.0586 6.68934 24.2621 7.0108 21.8724 7.09117C20.6776 7.17153 19.2438 7.2519 18.8455 7.2519C18.8455 6.44824 18.6862 4.43911 18.6065 4.03729C18.5269 3.63546 18.1286 3.15327 17.3321 3.23363C15.7389 3.47473 12.6324 4.43911 12.3138 6.60897C10.5614 6.52861 7.45481 5.56423 5.38378 5.72496C1.16205 6.04642 0.604465 6.20715 0.445155 7.41263C0.3655 8.13591 0.52481 8.69847 0.52481 8.93957C0.52481 9.18066 0.604466 10.145 1.48067 9.98432C5.22447 9.26103 10.5614 9.3414 11.7562 9.26103C11.3579 13.1989 10.2427 22.1998 9.36653 25.8163C8.64964 28.6291 8.17171 30.4775 10.3224 29.5935C12.6324 28.6291 13.5086 27.9861 14.3052 27.504C15.1017 27.0218 16.6152 25.4948 16.9338 23.2446C17.3321 20.3514 18.0489 16.9761 18.1286 15.7706C18.2083 14.5651 18.6862 10.7076 18.8455 9.34139C21.3945 9.34139 24.74 8.29665 25.7755 7.89482C21.4741 16.0117 18.8455 24.9323 19.0048 26.6199C19.0845 27.4236 19.5624 27.8254 20.5979 27.6647C21.6334 27.504 23.1469 26.4592 24.0231 25.4948C24.8993 24.5304 25.7755 24.209 26.8907 24.3697C28.0058 24.5304 28.4838 24.9323 28.8821 25.6555C29.6786 27.2629 30.8734 27.8254 33.0241 27.4236C35.8121 26.9414 36.8476 25.8966 38.2017 24.9323C39.4762 27.5843 41.0693 28.7094 44.6538 28.7094C46.6452 28.7094 49.4331 27.1825 50.5483 25.7359C51.1059 24.8519 51.4245 22.682 51.3448 21.798ZM42.8217 21.2355C42.5827 20.914 42.4234 19.8692 42.3438 19.146C42.5031 18.7441 43.459 18.1816 44.0165 18.6638C44.5741 19.0656 44.8927 19.8692 43.9369 20.8336C43.6183 21.2355 43.2996 21.3962 42.8217 21.2355Z" fill="white"/>
<path d="M177.598 40.8447H0.365234V42.452H177.598V40.8447Z" fill="white"/>
<path d="M11.1979 52.8994V62.8647H8.33028V52.8994H4.50684V50.167H15.0213V52.8994H11.1979Z" fill="white"/>
<path d="M25.1383 62.8653L22.9876 58.7667C22.8283 58.7667 22.669 58.7667 22.5097 58.7667C22.1114 58.7667 21.8724 58.7667 21.3945 58.7667V62.9456H18.4473V50.2479C19.4828 50.1676 20.6776 50.0068 22.1911 50.0068C26.0942 50.0068 27.6873 51.8552 27.6873 54.1858C27.6873 55.7128 26.8907 57.079 25.5366 57.8826L28.4838 62.7849H25.1383V62.8653ZM22.5893 52.7393C22.1114 52.7393 21.8724 52.7393 21.4742 52.8196V56.3557C21.8724 56.3557 22.0317 56.4361 22.43 56.4361C23.7842 56.4361 24.74 55.7931 24.74 54.5073C24.6604 53.3018 23.8638 52.7393 22.5893 52.7393Z" fill="white"/>
<path d="M40.3523 62.865L39.3964 60.5344H35.0154L34.0595 62.865H31.1123L37.0068 50.0869H37.4051L43.2995 62.865H40.3523ZM37.1661 55.2303L35.8916 58.2842H38.3609L37.1661 55.2303Z" fill="white"/>
<path d="M49.5918 50.167H46.6445V62.8647H49.5918V50.167Z" fill="white"/>
<path d="M64.7264 63.1057L57.1592 56.1943V62.8646H54.2119V50.0061L54.6102 49.9258L62.0978 56.7568V50.1669H65.045V63.0253L64.7264 63.1057Z" fill="white"/>
<path d="M72.6924 50.167H69.7451V62.8647H72.6924V50.167Z" fill="white"/>
<path d="M87.827 63.1057L80.2597 56.1943V62.8646H77.3125V50.0061L77.7108 49.9258L85.1984 56.7568V50.1669H88.1456V63.0253L87.827 63.1057Z" fill="white"/>
<path d="M103.599 55.7121V61.7395C102.245 62.5431 100.731 63.0253 98.8194 63.0253C95.1552 63.0253 92.208 60.3733 92.208 56.5157C92.208 52.5778 95.1552 49.9258 98.9787 49.9258C100.651 49.9258 101.926 50.3276 103.2 51.0509L102.006 53.3815C101.129 52.8993 100.174 52.6582 99.2177 52.6582C96.7483 52.6582 95.3942 54.2655 95.3942 56.4354C95.3942 58.8463 96.9873 60.3733 99.0583 60.3733C100.014 60.3733 100.412 60.2929 100.89 60.0518V58.2034H98.3415V55.7121H103.599Z" fill="white"/>
<path d="M119.37 63.0253C115.228 63.0253 112.52 60.2125 112.52 56.5157C112.52 52.7386 115.307 49.9258 119.37 49.9258C120.804 49.9258 122.158 50.3276 123.273 51.0509L122.397 53.5422C121.441 53.06 120.405 52.6582 119.37 52.6582C117.06 52.6582 115.546 54.1048 115.546 56.4354C115.546 58.766 116.98 60.2125 119.37 60.2125C120.405 60.2125 121.6 59.8911 122.476 59.2482L123.353 61.7395C122.317 62.6235 120.804 63.0253 119.37 63.0253Z" fill="white"/>
<path d="M127.176 62.8647V50.167H135.141V52.8994H130.123V55.1496H134.743V57.7213H130.123V60.1323H135.141V62.8647H127.176Z" fill="white"/>
<path d="M150.117 63.1057L142.55 56.1943V62.8646H139.603V50.0061L140.001 49.9258L147.488 56.7568V50.1669H150.436V63.0253L150.117 63.1057Z" fill="white"/>
<path d="M160.631 52.8994V62.8647H157.764V52.8994H153.94V50.167H164.455V52.8994H160.631Z" fill="white"/>
<path d="M168.518 62.9448V50.2471H176.483V52.8991H171.385V55.2297H176.005V57.8014H171.385V60.2124H176.483V62.9448H168.518Z" fill="white"/>
<path d="M187.794 62.9454L185.643 58.8467C185.484 58.8467 185.324 58.8467 185.165 58.8467C184.767 58.8467 184.528 58.8467 184.05 58.8467V63.0257H181.103V50.328C182.138 50.2476 183.333 50.0869 184.846 50.0869C188.749 50.0869 190.343 51.9353 190.343 54.2659C190.343 55.7928 189.546 57.1591 188.192 57.9627L191.139 62.865H187.794V62.9454ZM185.245 52.8193C184.767 52.8193 184.528 52.8193 184.129 52.8997V56.4358C184.528 56.4358 184.687 56.5161 185.085 56.5161C186.439 56.5161 187.395 55.8732 187.395 54.5874C187.316 53.3819 186.439 52.8193 185.245 52.8193Z" fill="white"/>
</svg>
